<svg height="512pt" viewBox="-25 0 512 512.00057" width="512pt" xmlns="http://www.w3.org/2000/svg"><g fill-rule="evenodd"><path d="m76.90625 187.804688c0-48.699219 24.242188-92.011719 61.25-118.472657-6.796875-7.585937-11.632812-17.3125-15.042969-26.6875-36.210937-4.546875-59.789062 30.5625-95.460937 72.121094-45.449219 52.957031 6.253906 125.015625 49.253906 146.679687zm0 0" fill="#ffecd1"/><path d="m138.15625 69.332031c-37.007812 26.460938-61.25 69.773438-61.25 118.476563v117.65625c20.613281-16.792969 52.382812-25.292969 95.910156-16.964844 2.449219-19.992188 27.761719-22.785156 58.625-22.785156 30.953125 0 56.324219 2.808594 58.648438 22.957031 43.367187-8.292969 75.058594.121094 95.675781 16.796875v-45.890625c-174.277344-.085937-174.742187-157.484375-174.742187-157.484375-25.984376 5.660156-52.128907 21.710938-66.347657 45.320312-10.28125-24.761718-5.609375-53.730468 7.941407-67.28125-5.601563-2.472656-10.382813-6.25-14.460938-10.800781zm0 0" fill="#ffecd1"/><path d="m211.023438 102.09375s.464843 157.398438 174.742187 157.484375v-71.773437c0-56.539063-32.664063-105.816407-80.058594-129.894532-19.71875-10.015625-41.984375-15.671875-65.507812-15.671875h-17.726563c-46.960937 0-107.023437-32.238281-107.023437-32.238281s1.515625 15.75 7.664062 32.648438c3.410157 9.371093 8.25 19.097656 15.042969 26.683593 4.078125 4.550781 8.859375 8.328125 14.464844 10.800781-13.550782 13.550782-18.222656 42.519532-7.945313 67.28125 14.21875-23.609374 40.363281-39.660156 66.347657-45.320312zm0 0" fill="#dca98a"/><path d="m305.707031 57.914062c47.390625 24.074219 80.058594 73.355469 80.058594 129.894532v71.769531c43-21.664063 94.917969-91.855469 49.464844-144.8125-41.738281-48.628906-66.917969-88.441406-115.160157-66.195313-1.714843.789063-7.382812 4.554688-14.363281 9.34375zm0 0" fill="#dca98a"/><path d="m290.089844 288.671875c-2.324219-20.148437-27.695313-22.957031-58.648438-22.957031-30.863281 0-56.175781 2.789062-58.625 22.785156-.128906 1.050781-.195312 2.148438-.195312 3.296875 0 22.988281 26.335937 50.453125 58.820312 50.453125 32.488282 0 58.824219-27.464844 58.824219-50.453125 0-1.085937-.058594-2.125-.175781-3.125zm0 0" fill="#c58965"/><path d="m290.265625 291.796875c0 22.988281-26.335937 50.457031-58.824219 50.457031-32.484375 0-58.820312-27.46875-58.820312-50.457031 0-1.148437.066406-2.246094.195312-3.296875-43.527344-8.328125-75.296875.171875-95.910156 16.964844-63.394531 51.636718-21.3125 181.664062 108.664062 141.660156 14.195313-4.367188 29.4375-10.765625 45.707032-19.515625l.164062.085937c16.332032 8.796876 31.628906 15.222657 45.875 19.605469 130.117188 40.046875 172.148438-90.3125 108.449219-141.832031-20.617187-16.675781-52.308594-25.089844-95.675781-16.796875.117187 1 .175781 2.039063.175781 3.125zm0 0" fill="#dca98a"/><path d="m277.316406 447.300781c-14.242187-4.382812-29.542968-10.808593-45.875-19.605469l-.160156-.085937c-16.269531 8.75-31.515625 15.144531-45.710938 19.515625v8.964844c0 25.25 20.644532 45.910156 45.875 45.910156 25.230469 0 45.871094-20.660156 45.871094-45.910156zm0 0" fill="#e199bd"/></g><path d="m461.09375 178.246094c5.167969-25.839844-1.152344-50.042969-18.273438-69.992188-4.507812-5.25-8.835937-10.417968-13.019531-15.417968-17.691406-21.117188-32.972656-39.351563-50.132812-50.207032-20.03125-12.667968-40.898438-13.695312-63.785157-3.140625-1.242187.574219-3.285156 1.679688-10.984374 6.875-20.066407-9.246093-42.023438-14.125-64.699219-14.125h-17.726563c-43.847656 0-101.71875-30.738281-102.292968-31.046875-3.253907-1.746094-7.199219-1.558594-10.269532.484375-3.070312 2.042969-4.769531 5.609375-4.414062 9.28125.089844.953125 1.019531 9.984375 4.09375 21.738281-11.832032 1.492188-23.203125 6.742188-34.9375 16.058594-13.835938 10.988282-26.691406 26.332032-41.578125 44.101563-4.183594 4.992187-8.507813 10.152343-13.007813 15.398437-17.21875 20.058594-23.53125 44.589844-18.257812 70.949219 7.609375 38.042969 37.546875 72.050781 65.097656 88.175781v33.523438c-7.464844 6.800781-13.699219 14.808594-18.476562 23.875-9.164063 17.375-12.535157 38.03125-9.5 58.164062 3.074218 20.363282 12.621093 39.371094 26.886718 53.519532 10.925782 10.835937 34.613282 28.265624 73.871094 28.261718 10.816406 0 22.816406-1.328125 36.050781-4.476562 2.136719 28.890625 26.292969 51.753906 55.703125 51.753906 29.375 0 53.511719-22.804688 55.695313-51.648438 13.324219 3.152344 25.359375 4.460938 36.148437 4.460938 28.554688 0 48.410156-9.117188 60.414063-17.222656 4.578125-3.089844 5.78125-9.304688 2.691406-13.882813s-9.304687-5.785156-13.882813-2.691406c-32.285156 21.796875-80.160156 17.738281-134.980468-11.417969-1.683594-1.296875-3.792969-2.078125-6.085938-2.078125-1.761718 0-3.414062.460938-4.851562 1.261719-.015625.007812-.03125.011719-.046875.019531-61.863281 33.269531-115.3125 34.53125-146.644531 3.457031-22.925782-22.738281-28.722657-59.8125-13.777344-88.152343 4.167968-7.910157 9.621094-14.65625 16.199218-20.207031.613282-.394532 1.183594-.851563 1.695313-1.367188 18.746094-14.808594 46.082031-20.339844 78.941406-15.542969 3.390625 26.632813 32.105469 55.261719 68.484375 55.261719 36.304688 0 64.976563-28.507812 68.464844-55.09375 33-4.84375 60.304688.617188 79.378906 15.957031.132813.113281.269532.21875.40625.324219.09375.078125.191406.148438.289063.226562 15.871093 13.101563 25 33.03125 25.042969 54.683594.011718 5.519532 4.484374 9.984375 10 9.980469h.019531c5.523437-.007813 9.992187-4.496094 9.980469-10.019531-.050782-26.21875-10.667969-50.554688-29.257813-67.414063v-35.378906c27.765625-16.171875 57.855469-49.90625 65.328125-87.269531zm-193.777344 277.84375c0 19.800781-16.09375 35.910156-35.875 35.910156-19.777344 0-35.871094-16.109375-35.871094-35.910156v-1.660156c8.210938-2.847657 16.832032-6.367188 25.871094-10.644532v15.132813c0 5.523437 4.480469 10 10 10 5.523438 0 10-4.476563 10-10v-14.960938c9.046875 4.273438 17.671875 7.777344 25.875 10.613281zm147.152344-350.410156c4.222656 5.042968 8.589844 10.257812 13.175781 15.597656 13.15625 15.328125 17.8125 33.175781 13.835938 53.046875-5.351563 26.761719-25.4375 52.011719-45.714844 67.199219v-53.71875c0-41.390626-16.226563-80.414063-45.6875-109.875-7.789063-7.792969-16.253906-14.644532-25.246094-20.527344 34.148438-15.429688 53.257813 4.859375 89.636719 48.277344zm-183.027344 226.574218c-28.320312 0-48.820312-24.167968-48.820312-40.457031 0-9.929687 8.167968-16.082031 48.820312-16.082031 40.65625 0 48.824219 6.152344 48.824219 16.082031 0 16.289063-20.503906 40.457031-48.824219 40.457031zm65.648438-54.894531c-3.238282-6.570313-9.449219-12.792969-20.8125-16.683594-12.757813-4.371093-29.824219-4.960937-44.835938-4.960937-15.011718 0-32.078125.589844-44.832031 4.960937-11.273437 3.859375-17.480469 10.015625-20.738281 16.527344-27.058594-3.980469-51.046875-1.832031-71.398438 6.457031-2.59375 1.054688-5.117187 2.210938-7.566406 3.460938v-99.3125c0-8.917969.886719-17.851563 2.632812-26.554688 1.085938-5.414062-2.421874-10.683594-7.835937-11.769531-5.414063-1.089844-10.6875 2.421875-11.773437 7.835937-2.003907 9.996094-3.023438 20.253907-3.023438 30.488282v55.515625c-20.085938-15.238281-40.023438-40.738281-45.484375-68.042969-4.078125-20.394531.570313-38.5625 13.820313-54 4.582031-5.335938 8.945312-10.542969 13.164062-15.582031 25.4375-30.363281 44.324219-52.898438 67.820312-53.410157 2.207032 5.152344 4.84375 10.300782 7.996094 15.125-5.285156 4.328126-10.296875 9.003907-14.980468 13.984376-3.78125 4.019531-3.589844 10.351562.433593 14.132812 4.019531 3.785156 10.351563 3.589844 14.136719-.433594 4.253906-4.523437 8.824219-8.765625 13.648438-12.671875.195312.160157.394531.320313.59375.476563-10.664063 18.339844-12.101563 45.492187-2.613282 68.347656 1.445313 3.484375 4.730469 5.859375 8.492188 6.136719 3.761718.28125 7.363281-1.578125 9.308594-4.8125 10.039062-16.664063 28.097656-30.425781 48.695312-37.550781 1.464844 12.851562 5.289062 33.84375 15.257812 56.363281 2.234376 5.050781 8.144532 7.332031 13.191407 5.097656 5.050781-2.238281 7.332031-8.144531 5.097656-13.195313-14.113281-31.882812-14.457031-60.949218-14.460937-61.222656-.007813-3.023437-1.382813-5.878906-3.738282-7.769531-2.355468-1.890625-5.441406-2.617187-8.390625-1.972656-23.101562 5.03125-44.191406 16.800781-59.53125 32.742187-1.460937-15.957031 3.15625-30.691406 10.328125-37.863281 2.332032-2.332031 3.363282-5.664063 2.757813-8.910156-.605469-3.242188-2.773438-5.976563-5.792969-7.308594-14.855469-6.554687-23.417969-26.820313-27.761719-43.371094 22.09375 9.914063 60.449219 24.625 93.582031 24.625h17.726563c21.53125 0 41.902344 5.054688 60.003906 14.027344.640625.421875 1.320313.761719 2.027344 1.023437 43.636719 22.550782 73.535156 68.109376 73.535156 120.519532v99.386718c-17.6875-8.980468-43.160156-15.050781-78.679687-9.835937zm0 0"/><path d="m158.253906 197.9375c-10.6875 0-20.640625 5.75-25.984375 15-2.761719 4.785156-1.121093 10.898438 3.660157 13.660156 4.785156 2.765625 10.898437 1.121094 13.660156-3.65625 1.78125-3.085937 5.101562-5 8.664062-5 3.558594 0 6.878906 1.914063 8.660156 5 1.851563 3.207032 5.210938 5 8.667969 5 1.695313 0 3.417969-.433594 4.992188-1.34375 4.78125-2.761718 6.421875-8.875 3.65625-13.660156-5.339844-9.25-15.296875-15-25.976563-15zm0 0"/><path d="m304.636719 197.9375c-10.683594 0-20.640625 5.75-25.984375 15-2.761719 4.785156-1.121094 10.898438 3.660156 13.660156 4.785156 2.765625 10.898438 1.121094 13.660156-3.65625 1.78125-3.085937 5.101563-5 8.664063-5 3.558593 0 6.878906 1.914063 8.660156 5 1.851563 3.207032 5.210937 5 8.667969 5 1.695312 0 3.417968-.433594 4.992187-1.34375 4.78125-2.761718 6.421875-8.875 3.65625-13.660156-5.339843-9.25-15.296875-15-25.976562-15zm0 0"/><path d="m112.640625 341.527344c-3.714844-4.085938-10.039063-4.386719-14.125-.671875-4.085937 3.714843-4.386719 10.039062-.671875 14.125l.003906.003906c1.972656 2.171875 4.679688 3.273437 7.398438 3.273437 2.398437 0 4.808594-.859374 6.726562-2.601562 4.085938-3.714844 4.382813-10.042969.667969-14.128906zm0 0"/><path d="m111.214844 407.910156.003906.003906c1.871094 1.558594 4.136719 2.316407 6.394531 2.316407 2.863281 0 5.710938-1.226563 7.6875-3.597657 3.535157-4.246093 2.960938-10.550781-1.28125-14.085937-4.242187-3.535156-10.550781-2.964844-14.085937 1.277344-3.535156 4.246093-2.960938 10.550781 1.28125 14.085937zm0 0"/><path d="m160.015625 347.183594c-3.714844-4.085938-10.039063-4.386719-14.125-.671875-4.085937 3.714843-4.386719 10.039062-.671875 14.125l.003906.003906c1.972656 2.171875 4.679688 3.273437 7.398438 3.273437 2.398437 0 4.808594-.859374 6.726562-2.601562 4.085938-3.714844 4.382813-10.039062.667969-14.128906zm0 0"/><path d="m157.882812 407.203125.003907.003906c1.871093 1.558594 4.140625 2.316407 6.394531 2.316407 2.867188 0 5.710938-1.226563 7.6875-3.597657 3.535156-4.246093 2.960938-10.550781-1.28125-14.085937s-10.546875-2.964844-14.085938 1.277344c-3.535156 4.246093-2.960937 10.550781 1.28125 14.085937zm0 0"/><path d="m364.398438 355.625c4.074218-3.730469 4.347656-10.054688.617187-14.128906-3.730469-4.070313-10.058594-4.347656-14.128906-.613282l-.007813.003907c-4.070312 3.734375-4.34375 10.058593-.609375 14.128906 1.972657 2.148437 4.667969 3.242187 7.371094 3.242187 2.417969 0 4.839844-.871093 6.757813-2.632812zm0 0"/><path d="m338.195312 393.15625-.003906.003906c-3.902344 3.90625-3.902344 10.234375.003906 14.140625 1.953126 1.953125 4.511719 2.929688 7.070313 2.929688s5.121094-.980469 7.074219-2.933594c3.90625-3.902344 3.90625-10.234375 0-14.140625s-10.238282-3.90625-14.144532 0zm0 0"/><path d="m317.664062 360.636719c3.714844-4.085938 3.414063-10.410157-.671874-14.125-4.085938-3.714844-10.410157-3.417969-14.125.671875l-.007813.007812c-3.714844 4.085938-3.410156 10.40625.675781 14.121094 1.917969 1.742188 4.324219 2.601562 6.722656 2.601562 2.722657 0 5.433594-1.105468 7.40625-3.277343zm0 0"/><path d="m291.527344 392.449219-.003906.003906c-3.90625 3.90625-3.902344 10.234375.003906 14.140625 1.949218 1.953125 4.511718 2.929688 7.066406 2.929688 2.5625 0 5.125-.980469 7.078125-2.933594 3.902344-3.902344 3.902344-10.234375 0-14.140625-3.90625-3.90625-10.238281-3.90625-14.144531 0zm0 0"/><path d="m98.410156 112.636719c-4.703125-2.894531-10.863281-1.425781-13.757812 3.277343-2.894532 4.703126-1.429688 10.863282 3.273437 13.757813 1.636719 1.007813 3.445313 1.484375 5.230469 1.484375 3.359375 0 6.640625-1.691406 8.527344-4.757812l.003906-.007813c2.894531-4.703125 1.425781-10.859375-3.277344-13.753906zm0 0"/><path d="m409.355469 399.292969c-5.074219-2.175781-10.957031.179687-13.132813 5.253906-2.175781 5.078125.175782 10.957031 5.253906 13.132813 1.285157.550781 2.621094.808593 3.933594.808593 3.882813 0 7.570313-2.269531 9.195313-6.0625l.003906-.007812c2.175781-5.074219-.175781-10.949219-5.253906-13.125zm0 0"/></svg>