<?xml version="1.0"?>
<svg xmlns="http://www.w3.org/2000/svg" xmlns:xlink="http://www.w3.org/1999/xlink" version="1.1" viewBox="0 0 172 172" width="64px" height="64px"><g fill="none" fill-rule="nonzero" stroke="none" stroke-width="1" stroke-linecap="butt" stroke-linejoin="miter" stroke-miterlimit="10" stroke-dasharray="" stroke-dashoffset="0" font-family="none" font-weight="none" font-size="none" text-anchor="none" style="mix-blend-mode: normal"><path d="M0,172v-172h172v172z" fill="none"/><g><g id="surface1"><path d="M158.5625,83.3125c0,41.56177 -33.68823,75.25 -75.25,75.25c-41.56177,0 -75.25,-33.68823 -75.25,-75.25c0,-41.56177 33.68823,-75.25 75.25,-75.25c41.56177,0 75.25,33.68823 75.25,75.25z" fill="#2ecc71"/><path d="M83.3125,145.125c-34.13965,0 -61.8125,-27.67285 -61.8125,-61.8125c0,-34.13965 27.67285,-61.8125 61.8125,-61.8125c34.13965,0 61.8125,27.67285 61.8125,61.8125c0,34.13965 -27.67285,61.8125 -61.8125,61.8125z" fill="#cccccc"/><path d="M96.95996,116.50733c4.56665,4.89209 7.33814,11.19092 7.85254,17.86767v14.10938c0,1.48022 0.61939,5.72143 2.41455,6.20435l-23.91455,4.35669l-24.1875,-4.3252c1.93164,-0.43042 2.6875,-4.75562 2.6875,-6.23584c0,-1.48022 0,-2.44604 0,-8.73437c-20.9331,4.54565 -25.2583,-11.55835 -25.2583,-11.55835c-3.44336,-8.68189 -8.36695,-11.01245 -8.36695,-11.01245c-6.82373,-4.65064 0.51441,-4.57715 0.51441,-4.57715c4.86059,0.65088 9.1543,3.52734 11.61084,7.76855c6.71875,11.47436 17.31128,10.54004 21.5,8.62939c0.70337,-4.8606 5.64795,-10.56103 7.78955,-12.44018c-16.71289,-1.91065 -34.28662,-8.35645 -34.28662,-37.19458c-0.13647,-7.48511 2.61401,-14.72876 7.68457,-20.24023c-2.28857,-6.48779 -2.01562,-13.61597 0.75586,-19.91479c8.44043,-68.98267 6.30933,-2.01562 20.69165,7.71607c12.31421,-3.35937 25.31079,-3.35937 37.625,0c14.35083,-9.73169 20.67065,-7.71607 20.67065,-7.71607c2.81348,6.28833 3.12842,13.40601 0.88184,19.91479c5.07056,5.49048 7.83154,12.71314 7.71607,20.18774c-0.03149,28.96411 -17.60522,35.33642 -34.3811,37.19458z" fill="#ffffff"/><path d="M83.3125,5.375c-38.01343,0.021 -70.46289,27.46289 -76.80371,64.93042c-6.34082,37.47803 15.27466,74.06372 51.16748,86.58789c0.43042,0.31494 0.94482,0.49341 1.48022,0.51441c29.26855,9.55322 61.42407,0.96582 82.04224,-21.89893c20.62866,-22.87524 25.84619,-55.74463 13.33252,-83.87939c-12.51367,-28.13477 -40.42798,-46.2544 -71.21875,-46.2544zM63.69165,153.1875c0.49341,-1.51172 0.76636,-3.08642 0.80835,-4.67163v-1.45923c0,-1.20728 0,-2.84497 0,-7.30664c0.021,-0.81885 -0.33594,-1.6062 -0.97632,-2.1311c-0.62988,-0.5249 -1.46973,-0.72436 -2.27808,-0.5564c-18.05664,3.92627 -21.95142,-9.08081 -22.11939,-9.61621v-0.30444c-1.56421,-4.47217 -4.35669,-8.41943 -8.0625,-11.39038c2.87646,1.17578 5.28052,3.25439 6.88672,5.9104c7.09668,12.17773 18.8125,12.50317 24.99585,9.73169c0.83984,-0.37793 1.42773,-1.15478 1.55371,-2.06811c1.23877,-4.15723 3.62183,-7.88403 6.87622,-10.75c0.79785,-0.71387 1.0918,-1.81616 0.76636,-2.83447c-0.32544,-1.00781 -1.20728,-1.73218 -2.26758,-1.84766c-15.77857,-1.79516 -31.90357,-7.30664 -31.90357,-34.50708c-0.10498,-6.80273 2.41455,-13.38501 7.04419,-18.38208c0.76636,-0.73486 1.02881,-1.84766 0.67188,-2.84497c-1.94214,-5.28052 -1.94214,-11.08594 0,-16.36646c2.28858,0 7.85254,1.0498 17.25879,7.41162c0.65088,0.45142 1.45923,0.58789 2.22559,0.37793c11.86279,-3.2439 24.36597,-3.2439 36.22876,0c0.76636,0.20996 1.57471,0.07349 2.22559,-0.37793c9.43774,-6.39331 15.02271,-7.35913 17.22729,-7.44311c2.00513,5.27002 2.06811,11.08594 0.18897,16.39795c-0.38843,0.95532 -0.18897,2.05762 0.5144,2.82397c4.61914,4.98657 7.12817,11.57935 7.0127,18.38208c0,27.22143 -16.125,32.70142 -31.95605,34.45459c-1.0603,0.11548 -1.94214,0.85034 -2.25708,1.86865c-0.31494,1.02881 0,2.1311 0.80835,2.83447c3.96826,4.38818 6.41431,9.95215 6.96021,15.85205v14.10938c0.03149,1.5957 0.29395,3.18091 0.77686,4.70313c-12.81812,3.62183 -26.39209,3.62183 -39.21021,0zM108.0354,151.5708c-0.31494,-0.97632 -0.49341,-2.00513 -0.5354,-3.03394v-14.16186c-0.31494,-5.67944 -2.1731,-11.18042 -5.375,-15.88354c14.91772,-2.53003 31.95605,-10.26709 31.95605,-39.12622c0.11548,-7.59009 -2.49853,-14.95972 -7.36963,-20.77564c1.88965,-6.72925 1.43823,-13.88891 -1.28076,-20.32422c-0.30444,-0.73486 -0.91333,-1.31226 -1.66919,-1.55371c-0.75586,-0.24145 -7.66357,-2.04712 -21.98291,7.35913c-12.05176,-3.07593 -24.67041,-3.07593 -36.71167,0c-14.32984,-9.40625 -21.23755,-7.60059 -21.98291,-7.35913c-0.76636,0.24146 -1.37524,0.81885 -1.66919,1.55371c-2.72949,6.4353 -3.18091,13.59497 -1.29126,20.32422c-4.87109,5.81592 -7.48511,13.18555 -7.35913,20.77564c0,28.61768 16.74439,36.49121 31.52564,39.12622c-2.08911,2.50903 -3.67432,5.3855 -4.68213,8.49292c-3.81079,1.0708 -11.66333,1.10229 -16.90186,-7.90503c-2.91846,-5.04956 -8.052,-8.44043 -13.84692,-9.1333c-1.44873,0 -5.10205,0.24146 -5.96289,3.03394c-0.86084,2.79248 2.44605,5.375 3.92627,6.4563l0.34643,0.18897c0.16797,0 4.08374,2.1416 6.9917,9.47974c0.61938,1.91064 5.96289,16.39795 25.12183,13.84692c0,2.12061 0,3.19141 0,4.03125v1.50122c-0.04199,1.03931 -0.23096,2.05762 -0.5564,3.03393c-33.12134,-12.00977 -52.82617,-46.07593 -46.7373,-80.77197c6.09936,-34.69604 36.23926,-60.00684 71.4707,-60.00684c35.23145,0 65.37134,25.31079 71.4707,60.00684c6.09936,34.69604 -13.61597,68.76221 -46.72681,80.77197z" fill="#000000"/><path d="M83.3125,99.4375c-1.48022,0 -2.6875,1.20728 -2.6875,2.6875v5.375c0,1.48022 1.20728,2.6875 2.6875,2.6875c1.48022,0 2.6875,-1.20728 2.6875,-2.6875v-5.375c0,-1.48022 -1.20728,-2.6875 -2.6875,-2.6875z" fill="#000000"/><path d="M95.6792,106.24023c0.38843,1.42773 1.86865,2.26758 3.29639,1.87915c1.43823,-0.39893 2.27808,-1.87915 1.88965,-3.30689l-1.42773,-5.16504c-0.41992,-1.37524 -1.86865,-2.18359 -3.26489,-1.80566c-1.40674,0.37793 -2.24658,1.79517 -1.92114,3.2124z" fill="#000000"/><path d="M58.45313,92.77124c-0.61939,-0.35693 -1.35425,-0.45141 -2.04712,-0.27295c-0.69287,0.18896 -1.28076,0.65088 -1.6377,1.27026l-2.6875,4.65064c-0.66137,1.27026 -0.20996,2.84497 1.03931,3.56934c1.24927,0.72436 2.84497,0.32544 3.61133,-0.88184l2.6875,-4.65064c0.36743,-0.61939 0.46191,-1.35425 0.28345,-2.04712c-0.17847,-0.68237 -0.62988,-1.28076 -1.24927,-1.6377z" fill="#000000"/><path d="M109.86206,101.10669c0.46191,0.87134 1.36475,1.42773 2.35156,1.43823c0.98682,0.0105 1.90015,-0.5144 2.38306,-1.37524c0.47241,-0.86084 0.45142,-1.92114 -0.08398,-2.75049l-2.6875,-4.65064c-0.76636,-1.21777 -2.36206,-1.6062 -3.61133,-0.88184c-1.24927,0.71387 -1.70068,2.28858 -1.03931,3.56934z" fill="#000000"/><path d="M70.4419,97.74732c-1.43823,-0.37793 -2.89746,0.47241 -3.28589,1.90015l-1.39624,5.16504c-0.28345,0.93433 -0.04199,1.96314 0.65088,2.66651c0.68237,0.70337 1.70068,0.97632 2.64551,0.71387c0.94482,-0.26245 1.66919,-1.02881 1.88965,-1.98413l1.40674,-5.18603c0.36743,-1.42773 -0.48291,-2.89746 -1.91064,-3.27539z" fill="#000000"/><path d="M111.13233,25.42627c-2.01562,-1.00781 -4.07324,-1.91065 -6.18335,-2.6875c-1.36474,-0.41992 -2.81348,0.28345 -3.31738,1.6272c-0.49341,1.33325 0.12598,2.82398 1.43823,3.39087c1.92114,0.72436 3.80029,1.55371 5.63745,2.47754c0.37793,0.18897 0.78735,0.29395 1.20728,0.29395c1.23877,-0.0105 2.32007,-0.86084 2.60352,-2.06811c0.28345,-1.19678 -0.28345,-2.44604 -1.38574,-3.01294z" fill="#000000"/><path d="M93.11768,19.58936c-13.87842,-2.19409 -28.08228,0.37793 -40.3125,7.31714c-1.0603,0.59839 -1.58521,1.84766 -1.27027,3.02344c0.31494,1.18628 1.39624,2.00513 2.61402,1.99463c0.46191,0 0.92383,-0.11548 1.32275,-0.34643c11.15942,-6.31982 24.14551,-8.67139 36.81665,-6.66626c1.48022,0.24146 2.87646,-0.77685 3.11792,-2.25708c0.24146,-1.48023 -0.77685,-2.87647 -2.25708,-3.11792z" fill="#000000"/></g></g></g></svg>
