<?xml version="1.0" encoding="iso-8859-1"?>
<!-- Generator: Adobe Illustrator 19.0.0, SVG Export Plug-In . SVG Version: 6.00 Build 0)  -->
<svg version="1.1" id="Capa_1" xmlns="http://www.w3.org/2000/svg" xmlns:xlink="http://www.w3.org/1999/xlink" x="0px" y="0px"
	 viewBox="0 0 512.003 512.003" style="enable-background:new 0 0 512.003 512.003;" xml:space="preserve">
<g>
	<path style="fill:#FFCEAC;" d="M179.78,29.01c-46.074,27.604-80.9,88.982-103.451,207.564c-0.066,0.354-0.134,0.709-0.201,1.065
		c-3.785,20.03-6.508,49.533-5.332,77.515c18.217-32.221,58.719-54.07,123.211-41.495c0-12.055,9.765-21.827,21.809-21.827
		l80.43,0.064c5.506-0.001,11.015,2.077,15.25,6.246c4.376,4.308,6.546,10.013,6.497,15.706
		c64.492-12.576,104.995,9.274,123.211,41.495c0.051-1.198,0.095-2.587,0.131-3.79c0.81-26.889-1.838-54.741-5.462-73.913
		c-0.067-0.356-0.134-0.71-0.202-1.065C413.122,117.992,378.296,56.614,332.222,29.01C309.507,15.401,284.058,10,256.001,10
		C227.942,10,202.494,15.4,179.78,29.01z"/>
	<g>
		<path style="fill:#E0AC91;" d="M37.921,87.613c-48.637,56.666-7.604,125.774,38.408,148.961
			C98.88,117.992,133.706,56.614,179.78,29.01c-8.918-6.158-16.527-11.27-18.623-12.236C109.532-7.032,82.588,35.572,37.921,87.613z
			"/>
		<path style="fill:#E0AC91;" d="M332.222,29.01c46.074,27.604,80.9,88.982,103.449,207.564
			c46.014-23.187,87.047-92.295,38.41-148.962c-44.667-52.04-71.611-94.645-123.236-70.839
			C348.748,17.74,341.14,22.852,332.222,29.01z"/>
	</g>
	<path style="fill:#9D7463;" d="M296.246,251.895l-80.43-0.064c-12.045,0-21.809,9.773-21.809,21.827
		c0,6.533,2.869,12.396,7.414,16.396l39.105,39.951c8.579,8.73,22.393,8.625,31.01,0l40.215-41.085
		c4.119-4.191,6.195-9.627,6.242-15.074c0.049-5.693-2.121-11.398-6.497-15.706C307.261,253.972,301.752,251.894,296.246,251.895z"
		/>
	<path style="fill:#E0AC91;" d="M271.536,330.005c-8.617,8.625-22.431,8.73-31.01,0l-39.105-39.951
		c-4.545-4-7.414-9.863-7.414-16.396c-64.492-12.575-104.994,9.275-123.211,41.495C35.167,378.172,84.787,480.864,206.91,443.278
		c15.242-4.691,31.614-11.568,49.091-20.979l-0.002,0.188c17.478,9.412,33.85,16.289,49.093,20.98
		c122.12,37.585,171.74-65.106,136.112-128.125c-18.216-32.221-58.719-54.071-123.211-41.495
		c-0.047,5.447-2.123,10.883-6.242,15.074L271.536,330.005z"/>
	<path style="fill:#FF8D8D;" d="M305.092,443.466c-15.243-4.691-31.615-11.568-49.093-20.98l0.002-0.188
		c-17.477,9.412-33.849,16.289-49.091,20.979v9.593c0,27.022,22.091,49.131,49.091,49.131s49.091-22.109,49.091-49.131V443.466z"/>
</g>
<path d="M285.876,204.89c4.823,2.693,10.914,0.968,13.607-3.853c4.228-7.567,12.052-12.268,20.419-12.268s16.19,4.701,20.418,12.268
	c1.832,3.278,5.233,5.125,8.739,5.125c1.65,0,3.325-0.41,4.868-1.272c4.821-2.694,6.546-8.786,3.853-13.607
	c-7.758-13.887-22.273-22.514-37.879-22.514s-30.121,8.627-37.879,22.514C279.33,196.104,281.055,202.196,285.876,204.89z"/>
<path d="M192.099,168.769c-15.607,0-30.121,8.627-37.879,22.514c-2.694,4.822-0.969,10.913,3.852,13.607
	c4.822,2.693,10.915,0.968,13.607-3.853c4.228-7.567,12.052-12.268,20.42-12.268s16.191,4.701,20.418,12.268
	c1.832,3.278,5.233,5.125,8.74,5.125c1.65,0,3.324-0.41,4.868-1.271c4.821-2.693,6.547-8.786,3.854-13.607
	C222.22,177.395,207.705,168.769,192.099,168.769z"/>
<path d="M481.669,81.099c-4.827-5.623-9.461-11.155-13.943-16.504c-18.894-22.552-35.211-42.029-53.482-53.583
	c-21.221-13.42-43.33-14.505-67.587-3.319c-1.488,0.686-4.056,2.098-15.035,9.597C309.688,5.583,284.626,0,256.001,0
	s-53.688,5.583-75.622,17.289c-10.975-7.496-13.544-8.909-15.035-9.597c-24.258-11.186-46.367-10.1-67.588,3.32
	C79.485,22.566,63.168,42.043,44.274,64.596c-4.481,5.349-9.116,10.881-13.942,16.503c-20.559,23.955-28.318,52.157-22.437,81.56
	c6.363,31.813,28.523,62.161,57.338,79.223c-2.955,18.113-5.41,44.41-4.532,70.915c-9.661,18.399-13.232,40.238-10.045,61.546
	c3.241,21.673,13.377,41.904,28.541,56.966c18.514,18.391,43.628,28.733,72.627,29.91c1.895,0.077,3.802,0.115,5.723,0.115
	c12.615,0,25.793-1.659,39.477-4.956c1.82,30.978,27.572,55.625,58.978,55.625c31.343,0,57.052-24.548,58.964-55.439
	c13.688,3.299,26.87,4.958,39.49,4.958c1.918,0,3.83-0.038,5.722-0.115c28.999-1.176,54.113-11.519,72.627-29.91
	c15.164-15.063,25.299-35.293,28.541-56.966c3.188-21.311-0.385-43.153-10.049-61.554c0.012-0.384,0.024-0.763,0.035-1.123
	c0.688-22.801-1.011-48.455-4.562-69.972c28.815-17.061,50.975-47.408,57.338-79.222
	C509.988,133.257,502.229,105.054,481.669,81.099z M357.707,63.662c30.03,34.565,52.303,91.663,68.083,174.505
	c0.011,0.07,0.028,0.14,0.04,0.21c0.071,0.376,0.145,0.743,0.216,1.119c2.195,11.614,4.346,28.737,5.126,47.594
	c-8.374-7.526-18.19-13.628-29.223-18.073c-21.682-8.735-47.231-10.951-76.043-6.659c-1.571-4.149-4.032-8.034-7.395-11.345
	c-5.974-5.88-13.88-9.119-22.257-9.119l-80.437-0.064c-13.496,0-25.047,8.457-29.661,20.349
	c-28.838-4.304-54.409-2.092-76.105,6.649c-11.032,4.444-20.848,10.545-29.221,18.071c0.778-18.67,2.903-35.651,5.124-47.404
	c0.068-0.36,0.139-0.71,0.207-1.069c0.018-0.091,0.039-0.183,0.053-0.274c15.779-82.835,38.051-139.927,68.079-174.49
	C180.173,33.874,212.492,20,256.001,20S331.828,33.874,357.707,63.662z M215.808,261.831l80.441,0.064
	c3.099,0,6.022,1.198,8.231,3.372c4.623,4.551,4.685,12.018,0.124,16.659l-40.173,41.042c-2.3,2.287-5.305,3.546-8.466,3.546
	c-3.128,0-6.078-1.249-8.293-3.503l-39.106-39.951c-0.173-0.177-0.353-0.348-0.54-0.512c-2.555-2.249-4.02-5.489-4.02-8.889
	C204.007,267.137,209.305,261.831,215.808,261.831z M27.506,158.736c-4.63-23.151,1.595-45.493,18.003-64.61
	c4.904-5.713,9.577-11.291,14.096-16.686c39.377-47.003,59.964-68.833,97.277-51.627c0.347,0.176,1.522,0.839,5.171,3.248
	c-43.398,32.963-72.879,95.036-92.773,191.628C48.415,206.008,32.254,182.472,27.506,158.736z M295.092,452.871
	c0,21.577-17.536,39.131-39.091,39.131s-39.091-17.554-39.091-39.131v-2.319c9.487-3.255,19.19-7.248,29.091-11.967v17.314
	c0,5.523,4.477,10,10,10c5.523,0,10-4.477,10-10v-17.124c9.901,4.719,19.604,8.712,29.091,11.967V452.871z M418.709,417.307
	c-33.546,33.323-90.544,32.242-156.537-2.874c-0.111-0.087-0.227-0.166-0.341-0.248c-0.095-0.068-0.187-0.141-0.284-0.206
	c-0.143-0.095-0.292-0.179-0.439-0.267c-0.135-0.081-0.268-0.165-0.407-0.239c-0.117-0.062-0.238-0.114-0.356-0.172
	c-0.176-0.085-0.35-0.171-0.53-0.246c-0.097-0.04-0.196-0.071-0.294-0.107c-0.205-0.077-0.41-0.155-0.622-0.219
	c-0.099-0.03-0.2-0.05-0.3-0.077c-0.21-0.057-0.419-0.115-0.634-0.158c-0.207-0.042-0.416-0.067-0.625-0.096
	c-0.109-0.015-0.216-0.037-0.327-0.049c-0.666-0.068-1.34-0.068-2.014,0c-0.081,0.008-0.158,0.024-0.238,0.034
	c-0.244,0.03-0.487,0.063-0.729,0.111c-0.16,0.032-0.315,0.077-0.472,0.117s-0.315,0.073-0.471,0.121
	c-0.234,0.071-0.462,0.158-0.689,0.246c-0.077,0.03-0.156,0.053-0.233,0.085c-0.325,0.136-0.643,0.286-0.949,0.453
	c-66.583,35.845-124.144,37.16-157.925,3.603c-24.769-24.604-30.976-64.672-14.76-95.274c17.672-33.348,56.332-47.578,106.67-39.577
	c1.612,5.731,4.809,10.958,9.309,15.022l38.884,39.724c6.019,6.126,14.035,9.5,22.572,9.5c8.52,0,16.562-3.353,22.645-9.44
	c0.024-0.024,0.048-0.048,0.072-0.073l40.201-41.07c3.832-3.899,6.451-8.545,7.861-13.465c50.363-8.018,89.045,6.208,106.725,39.568
	C449.685,352.634,443.478,392.703,418.709,417.307z M484.495,158.737c-4.748,23.737-20.91,47.273-41.775,61.953
	c-19.894-96.593-49.376-158.666-92.774-191.629c3.637-2.402,4.79-3.055,5.086-3.207c37.396-17.247,57.986,4.582,97.363,51.584
	c4.52,5.395,9.193,10.973,14.097,16.687C482.901,113.243,489.126,135.585,484.495,158.737z"/>
<path d="M143.251,318.899c-5.508,0-10,4.492-10,10s4.492,10,10,10s10-4.492,10-10C153.251,323.392,148.759,318.899,143.251,318.899z
	"/>
<path d="M122.251,373.899c-5.508,0-10,4.492-10,10s4.492,10,10,10s10-4.492,10-10C132.251,378.392,127.759,373.899,122.251,373.899z
	"/>
<path d="M181.751,359.899c-5.508,0-10,4.492-10,10s4.492,10,10,10s10-4.492,10-10C191.751,364.392,187.259,359.899,181.751,359.899z
	"/>
<path d="M368.751,318.899c-5.508,0-10,4.492-10,10s4.492,10,10,10s10-4.492,10-10C378.751,323.392,374.259,318.899,368.751,318.899z
	"/>
<path d="M389.751,373.899c-5.508,0-10,4.492-10,10s4.492,10,10,10s10-4.492,10-10C399.751,378.392,395.259,373.899,389.751,373.899z
	"/>
<path d="M330.251,359.899c-5.508,0-10,4.492-10,10s4.492,10,10,10s10-4.492,10-10C340.251,364.392,335.759,359.899,330.251,359.899z
	"/>
<path d="M157.215,123.06c0.006-0.012,0.056-0.111,0.071-0.142c2.492-4.917,0.534-10.927-4.381-13.431
	c-4.92-2.507-10.942-0.55-13.45,4.372c-0.005,0.011-0.089,0.179-0.095,0.19c-2.488,4.931-0.508,10.945,4.422,13.433
	c1.445,0.729,2.982,1.075,4.497,1.075C151.933,128.556,155.455,126.545,157.215,123.06z"/>
<path d="M156.953,102.27c1.732,1.193,3.707,1.765,5.663,1.765c3.179,0,6.306-1.513,8.245-4.33
	c11.195-16.259,32.207-35.374,47.994-39.221c5.366-1.308,8.656-6.717,7.348-12.083c-1.308-5.365-6.714-8.659-12.084-7.348
	c-23.94,5.834-48.837,31.489-59.731,47.31C151.255,92.911,152.404,99.138,156.953,102.27z"/>
<g>
</g>
<g>
</g>
<g>
</g>
<g>
</g>
<g>
</g>
<g>
</g>
<g>
</g>
<g>
</g>
<g>
</g>
<g>
</g>
<g>
</g>
<g>
</g>
<g>
</g>
<g>
</g>
<g>
</g>
</svg>
