<?xml version="1.0" encoding="iso-8859-1"?>
<!-- Generator: Adobe Illustrator 19.0.0, SVG Export Plug-In . SVG Version: 6.00 Build 0)  -->
<svg version="1.1" id="Layer_1" xmlns="http://www.w3.org/2000/svg" xmlns:xlink="http://www.w3.org/1999/xlink" x="0px" y="0px"
	 viewBox="0 0 512 512" style="enable-background:new 0 0 512 512;" xml:space="preserve">
<circle style="fill:#78BAEB;" cx="256" cy="256" r="247.916"/>
<path style="fill:#59AAE7;" d="M256,8.084c-10.96,0-21.752,0.72-32.337,2.099C345.304,26.029,439.242,130.04,439.242,256
	s-93.939,229.971-215.579,245.817c10.585,1.379,21.377,2.099,32.337,2.099c136.921,0,247.916-110.996,247.916-247.916
	S392.921,8.084,256,8.084z"/>
<path style="fill:#FCFCFC;" d="M207.759,396.665c-22.769,0-45.083-4.096-66.321-12.173l-21.046-8.004
	c-2.302-0.875-1.983-4.227,0.443-4.653l22.178-3.894c20.547-3.609,39.977-11.974,56.63-24.328c1.757-1.303,1.049-4.045-1.116-4.363
	c-19.391-2.845-36.801-14.571-46.57-31.777l-4.979-8.77c-0.893-1.572,0.188-3.532,1.992-3.618l10.073-0.482
	c0.033-0.001,0.067-0.003,0.101-0.005c2.53-0.125,3.133-3.569,0.834-4.633c-18.452-8.541-31.819-25.695-35.254-46.235l-1.535-9.18
	c-0.286-1.707,1.259-3.155,2.944-2.76l9.063,2.123c4.824,1.13,9.81,1.703,14.822,1.703c0.059,0,0.119,0,0.178,0
	c-19.326-12.379-30.806-33.298-30.806-56.324c0-5.727,0.719-11.392,2.137-16.839l2.71-10.407c0.471-1.808,2.723-2.426,4.051-1.113
	l7.648,7.561c20.198,19.971,44.998,35.344,71.725,44.461c7.076,2.244,28.537,8.332,35.968,8.362l0.183,0.002
	c0.026,0,2.17,0.078,3.561,0.142c-0.009-0.391-0.015-0.783-0.015-1.175c0-40.468,32.923-73.392,73.392-73.392
	c19.323,0,37.467,7.403,51.257,20.881c0.545,0.532,1.303,0.792,2.057,0.678c7.091-1.076,14.147-2.773,20.934-5.047l22.626-7.581
	c2.37-0.794,4.246,2.085,2.562,3.932l-16.076,17.634c-2.142,2.35-4.443,4.536-6.889,6.547c-1.938,1.593-0.497,4.725,1.968,4.263
	c2.191-0.411,4.37-0.875,6.526-1.393l20.755-4.98c2.361-0.566,3.996,2.302,2.306,4.045l-14.859,15.322
	c-6.016,6.203-12.686,11.897-19.827,16.924l0.012,0.35c0.022,0.603,0.04,1.206,0.04,1.814v0.731
	C393.724,313.398,310.111,396.665,207.759,396.665z"/>
<path d="M437.019,74.981C388.667,26.628,324.379,0,256,0S123.333,26.628,74.981,74.981S0,187.62,0,256
	s26.628,132.667,74.981,181.019S187.62,512,256,512s132.667-26.628,181.019-74.981S512,324.379,512,256
	S485.372,123.333,437.019,74.981z M256,495.832C123.756,495.832,16.168,388.244,16.168,256S123.756,16.168,256,16.168
	S495.832,123.756,495.832,256S388.244,495.832,256,495.832z"/>
<path d="M436.352,162.391c-2.433-2.104-5.958-2.463-8.875-1.11c-4.183,1.94-8.457,3.644-12.806,5.107
	c4.313-5.884,7.758-12.422,10.188-19.432c1.002-2.891,0.503-6.176-1.569-8.427c-2.593-2.814-6.723-3.406-9.963-1.56
	c-11.815,6.733-24.558,11.306-37.931,13.618c-14.958-13.729-34.201-21.24-54.643-21.24c-42.313,0-77.147,32.642-80.648,74.065
	c-8.741-1.364-25.844-6.241-29.933-7.578c-29.581-10.075-56.228-27.814-77.075-51.307c-1.236-1.393-2.864-2.428-4.695-2.764
	c-3.68-0.672-7.171,1.186-8.745,4.339c-5.181,10.383-7.809,21.548-7.809,33.185c0,16.093,5.038,31.261,14.113,43.73
	c-2.828-0.531-5.838,0.462-7.812,2.89c-1.135,1.396-1.703,3.168-1.77,4.966c-0.03,0.82-0.057,1.643-0.057,2.472
	c0,21.817,9.99,41.646,26.136,54.588c-1.115,0.755-2.054,1.797-2.703,3.082c-0.963,1.904-1.07,4.143-0.434,6.178
	c7.052,22.559,24.572,39.739,46.292,46.781c-19.673,11.976-42.429,18.434-65.679,18.434c-2.053,0-4.166-0.053-6.279-0.156
	c-4.046-0.185-7.675,2.639-8.371,6.744c-0.568,3.349,1.162,6.698,4.087,8.423c29.718,17.529,63.734,26.792,98.39,26.792
	c41.361,0,80.758-12.881,113.607-36.725c4.052-2.942,4.499-8.821,0.959-12.362l-0.003-0.003c-2.852-2.852-7.338-3.159-10.605-0.793
	c-29.275,21.198-65.207,33.714-103.959,33.714c-21.719,0-43.162-3.968-63.255-11.61c24.303-4.268,47.275-14.808,66.409-30.712
	c2.312-1.922,3.529-4.962,2.947-7.911c-0.744-3.767-3.972-6.43-7.707-6.535c-19.686-0.558-37.26-11.435-46.698-28.06
	c4.501-0.216,9.006-0.832,13.44-1.841c3.382-0.77,6.119-3.472,6.559-6.913c0.529-4.142-2.134-7.925-6.085-8.897
	c-21.117-5.2-36.647-22.364-40.14-43.256c6.19,1.451,12.624,2.092,19.047,1.896c3.963-0.119,7.317-3.109,7.792-7.166
	c0.374-3.196-1.323-6.291-4.07-7.966c-17.529-10.682-27.985-29.272-27.985-49.783c0-5.014,0.623-9.917,1.859-14.665
	c21.192,20.954,46.914,36.922,75.086,46.518c0.258,0.088,28.093,8.754,38.636,8.797c0.688,0.017,3.975,0.162,3.98,0.162
	c3.388,0.137,6.673-1.919,7.953-5.326c0.368-0.978,0.502-2.03,0.477-3.074c-0.011-0.471-0.023-0.942-0.023-1.416
	c0-35.713,29.055-64.769,64.769-64.769c17.487,0,33.878,6.872,46.158,19.348c1.777,1.807,4.282,2.697,6.793,2.349
	c8.227-1.141,16.256-3.025,24.037-5.632c-4.142,4.544-9.025,8.437-14.502,11.504c-3.692,2.067-5.258,6.558-3.518,10.415l0.119,0.264
	c1.424,3.152,4.691,5.045,8.136,4.72c6.687-0.638,13.282-1.739,19.753-3.291c-5.725,5.904-12.02,11.267-18.849,16.051
	c-2.228,1.561-3.509,4.147-3.416,6.865l0.017,0.511c0.019,0.553,0.04,1.107,0.04,1.664v0.731
	c-0.186,45.29-17.461,86.654-45.668,117.994c-2.882,3.201-2.702,8.117,0.344,11.163l0,0c3.312,3.312,8.72,3.151,11.855-0.332
	c31.691-35.208,49.224-80.18,49.633-127.902c14.422-10.743,26.595-23.876,36.227-39.093
	C440.029,169.5,439.434,165.057,436.352,162.391z"/>
<g>
</g>
<g>
</g>
<g>
</g>
<g>
</g>
<g>
</g>
<g>
</g>
<g>
</g>
<g>
</g>
<g>
</g>
<g>
</g>
<g>
</g>
<g>
</g>
<g>
</g>
<g>
</g>
<g>
</g>
</svg>
