<svg width="295" height="601" viewBox="0 0 295 601" fill="none" xmlns="http://www.w3.org/2000/svg">
<path opacity="0.15" fill-rule="evenodd" clip-rule="evenodd" d="M1.49515 0L1.383 35.0629C1.383 35.0629 59.1024 103.623 118.141 35.0629C177.179 -33.4976 294.265 72.5 294.265 72.5L294.497 0H1.49515Z" fill="#56CCF2"/>
<path d="M0 84.5C0 84.5 92.5 285 125 191C157.5 97 293 121 293 121V549H0V84.5Z" fill="#56CCF2"/>
<path d="M0 127C0 127 59 249 146.5 188C234 127 293 127 293 127V601H0V127Z" fill="#2D9CDB"/>
<path d="M105.703 77.874H92.6772V114H87.3613V77.874H74.3638V73.4766H105.703V77.874ZM117.448 114H112.104V73.4766H117.448V114ZM154.409 77.874H141.383V114H136.067V77.874H123.07V73.4766H154.409V77.874ZM165.792 109.63H184.996V114H160.42V73.4766H165.792V109.63ZM213.997 95.269H196.435V109.63H216.836V114H191.091V73.4766H216.558V77.874H196.435V90.8994H213.997V95.269Z" fill="#2D9CDB"/>
<g filter="url(#filter0_d)">
<rect x="10" y="236" width="273" height="46" rx="5" fill="white"/>
</g>
<path d="M58.4238 260.028C56.6549 259.52 55.3659 258.897 54.5566 258.159C53.7546 257.414 53.3535 256.498 53.3535 255.409C53.3535 254.177 53.8441 253.16 54.8252 252.358C55.8135 251.549 57.0954 251.145 58.6709 251.145C59.7451 251.145 60.7012 251.352 61.5391 251.768C62.3841 252.183 63.0358 252.756 63.4941 253.486C63.9596 254.217 64.1924 255.015 64.1924 255.882H62.1191C62.1191 254.937 61.8184 254.195 61.2168 253.658C60.6152 253.114 59.7666 252.842 58.6709 252.842C57.654 252.842 56.859 253.067 56.2861 253.519C55.7204 253.963 55.4375 254.582 55.4375 255.377C55.4375 256.014 55.7061 256.555 56.2432 256.999C56.7874 257.436 57.7077 257.837 59.0039 258.202C60.3073 258.567 61.3242 258.972 62.0547 259.416C62.7923 259.853 63.3366 260.365 63.6875 260.952C64.0456 261.539 64.2246 262.23 64.2246 263.025C64.2246 264.293 63.7305 265.31 62.7422 266.076C61.7539 266.835 60.4326 267.215 58.7783 267.215C57.7041 267.215 56.7015 267.011 55.7705 266.603C54.8395 266.187 54.1198 265.621 53.6113 264.905C53.11 264.189 52.8594 263.376 52.8594 262.467H54.9326C54.9326 263.412 55.2799 264.16 55.9746 264.712C56.6764 265.256 57.611 265.528 58.7783 265.528C59.8669 265.528 60.7012 265.306 61.2812 264.862C61.8613 264.418 62.1514 263.813 62.1514 263.047C62.1514 262.281 61.8828 261.69 61.3457 261.274C60.8086 260.852 59.8346 260.437 58.4238 260.028ZM66.04 261.081C66.04 259.942 66.262 258.918 66.7061 258.009C67.1572 257.099 67.7803 256.397 68.5752 255.903C69.3773 255.409 70.2904 255.162 71.3145 255.162C72.8971 255.162 74.1755 255.71 75.1494 256.806C76.1305 257.901 76.6211 259.359 76.6211 261.178V261.317C76.6211 262.449 76.4027 263.466 75.9658 264.368C75.5361 265.263 74.9167 265.962 74.1074 266.463C73.3053 266.964 72.3815 267.215 71.3359 267.215C69.7604 267.215 68.4821 266.667 67.501 265.571C66.527 264.476 66.04 263.025 66.04 261.221V261.081ZM68.0381 261.317C68.0381 262.606 68.3353 263.641 68.9297 264.422C69.5312 265.202 70.3333 265.593 71.3359 265.593C72.3457 265.593 73.1478 265.199 73.7422 264.411C74.3366 263.616 74.6338 262.506 74.6338 261.081C74.6338 259.806 74.3294 258.775 73.7207 257.987C73.1191 257.192 72.3171 256.795 71.3145 256.795C70.3333 256.795 69.542 257.185 68.9404 257.966C68.3389 258.746 68.0381 259.864 68.0381 261.317ZM80.0908 267V256.913H78.2539V255.377H80.0908V254.185C80.0908 252.938 80.4238 251.975 81.0898 251.295C81.7559 250.615 82.6976 250.274 83.915 250.274C84.3734 250.274 84.8281 250.335 85.2793 250.457L85.1719 252.068C84.8353 252.004 84.4772 251.972 84.0977 251.972C83.4531 251.972 82.9554 252.161 82.6045 252.541C82.2536 252.913 82.0781 253.451 82.0781 254.152V255.377H84.5596V256.913H82.0781V267H80.0908ZM89.458 252.562V255.377H91.6279V256.913H89.458V264.121C89.458 264.587 89.5547 264.938 89.748 265.174C89.9414 265.403 90.2708 265.518 90.7363 265.518C90.9655 265.518 91.2806 265.475 91.6816 265.389V267C91.1589 267.143 90.6504 267.215 90.1562 267.215C89.2682 267.215 88.5986 266.946 88.1475 266.409C87.6963 265.872 87.4707 265.109 87.4707 264.121V256.913H85.3545V255.377H87.4707V252.562H89.458ZM104.25 264.261L106.484 255.377H108.472L105.088 267H103.477L100.651 258.191L97.9014 267H96.29L92.917 255.377H94.8936L97.1816 264.078L99.8887 255.377H101.489L104.25 264.261ZM117.678 267C117.563 266.771 117.47 266.363 117.398 265.775C116.475 266.735 115.372 267.215 114.09 267.215C112.944 267.215 112.002 266.893 111.265 266.248C110.534 265.596 110.169 264.773 110.169 263.777C110.169 262.567 110.627 261.629 111.544 260.963C112.468 260.29 113.764 259.953 115.433 259.953H117.366V259.04C117.366 258.345 117.159 257.794 116.743 257.386C116.328 256.97 115.715 256.763 114.906 256.763C114.197 256.763 113.603 256.942 113.123 257.3C112.643 257.658 112.403 258.091 112.403 258.6H110.405C110.405 258.02 110.609 257.461 111.018 256.924C111.433 256.38 111.992 255.95 112.693 255.635C113.402 255.32 114.179 255.162 115.024 255.162C116.364 255.162 117.413 255.499 118.172 256.172C118.931 256.838 119.325 257.758 119.354 258.933V264.282C119.354 265.349 119.49 266.198 119.762 266.828V267H117.678ZM114.38 265.485C115.003 265.485 115.594 265.324 116.152 265.002C116.711 264.68 117.116 264.261 117.366 263.745V261.36H115.809C113.374 261.36 112.156 262.073 112.156 263.498C112.156 264.121 112.364 264.608 112.779 264.959C113.195 265.31 113.728 265.485 114.38 265.485ZM128.087 257.16C127.786 257.11 127.46 257.085 127.109 257.085C125.806 257.085 124.922 257.64 124.456 258.75V267H122.469V255.377H124.402L124.435 256.72C125.086 255.681 126.01 255.162 127.206 255.162C127.593 255.162 127.886 255.212 128.087 255.312V257.16ZM134.532 267.215C132.957 267.215 131.675 266.699 130.687 265.668C129.698 264.63 129.204 263.244 129.204 261.511V261.146C129.204 259.993 129.423 258.965 129.859 258.062C130.303 257.153 130.919 256.444 131.707 255.936C132.502 255.42 133.361 255.162 134.285 255.162C135.796 255.162 136.971 255.66 137.809 256.655C138.646 257.651 139.065 259.076 139.065 260.931V261.758H131.191C131.22 262.904 131.553 263.831 132.19 264.54C132.835 265.242 133.651 265.593 134.64 265.593C135.341 265.593 135.936 265.45 136.423 265.163C136.91 264.877 137.336 264.497 137.701 264.024L138.915 264.97C137.941 266.466 136.48 267.215 134.532 267.215ZM134.285 256.795C133.483 256.795 132.81 257.089 132.266 257.676C131.721 258.256 131.385 259.072 131.256 260.125H137.078V259.975C137.021 258.965 136.749 258.184 136.262 257.633C135.775 257.074 135.116 256.795 134.285 256.795ZM151.752 260.028C149.983 259.52 148.694 258.897 147.885 258.159C147.083 257.414 146.682 256.498 146.682 255.409C146.682 254.177 147.172 253.16 148.153 252.358C149.142 251.549 150.424 251.145 151.999 251.145C153.073 251.145 154.029 251.352 154.867 251.768C155.712 252.183 156.364 252.756 156.822 253.486C157.288 254.217 157.521 255.015 157.521 255.882H155.447C155.447 254.937 155.146 254.195 154.545 253.658C153.943 253.114 153.095 252.842 151.999 252.842C150.982 252.842 150.187 253.067 149.614 253.519C149.049 253.963 148.766 254.582 148.766 255.377C148.766 256.014 149.034 256.555 149.571 256.999C150.116 257.436 151.036 257.837 152.332 258.202C153.635 258.567 154.652 258.972 155.383 259.416C156.12 259.853 156.665 260.365 157.016 260.952C157.374 261.539 157.553 262.23 157.553 263.025C157.553 264.293 157.059 265.31 156.07 266.076C155.082 266.835 153.761 267.215 152.106 267.215C151.032 267.215 150.03 267.011 149.099 266.603C148.168 266.187 147.448 265.621 146.939 264.905C146.438 264.189 146.188 263.376 146.188 262.467H148.261C148.261 263.412 148.608 264.16 149.303 264.712C150.005 265.256 150.939 265.528 152.106 265.528C153.195 265.528 154.029 265.306 154.609 264.862C155.189 264.418 155.479 263.813 155.479 263.047C155.479 262.281 155.211 261.69 154.674 261.274C154.137 260.852 153.163 260.437 151.752 260.028ZM169.713 261.317C169.713 263.086 169.308 264.511 168.499 265.593C167.69 266.674 166.594 267.215 165.212 267.215C163.801 267.215 162.691 266.767 161.882 265.872V271.469H159.895V255.377H161.71L161.807 256.666C162.616 255.663 163.74 255.162 165.18 255.162C166.576 255.162 167.679 255.688 168.488 256.741C169.305 257.794 169.713 259.258 169.713 261.135V261.317ZM167.726 261.092C167.726 259.781 167.446 258.746 166.888 257.987C166.329 257.228 165.563 256.849 164.589 256.849C163.386 256.849 162.483 257.382 161.882 258.449V264.003C162.476 265.063 163.386 265.593 164.61 265.593C165.563 265.593 166.318 265.217 166.877 264.465C167.443 263.706 167.726 262.581 167.726 261.092ZM177.071 267.215C175.496 267.215 174.214 266.699 173.226 265.668C172.237 264.63 171.743 263.244 171.743 261.511V261.146C171.743 259.993 171.962 258.965 172.398 258.062C172.842 257.153 173.458 256.444 174.246 255.936C175.041 255.42 175.9 255.162 176.824 255.162C178.335 255.162 179.51 255.66 180.348 256.655C181.186 257.651 181.604 259.076 181.604 260.931V261.758H173.73C173.759 262.904 174.092 263.831 174.729 264.54C175.374 265.242 176.19 265.593 177.179 265.593C177.881 265.593 178.475 265.45 178.962 265.163C179.449 264.877 179.875 264.497 180.24 264.024L181.454 264.97C180.48 266.466 179.019 267.215 177.071 267.215ZM176.824 256.795C176.022 256.795 175.349 257.089 174.805 257.676C174.26 258.256 173.924 259.072 173.795 260.125H179.617V259.975C179.56 258.965 179.288 258.184 178.801 257.633C178.314 257.074 177.655 256.795 176.824 256.795ZM188.576 265.593C189.285 265.593 189.905 265.378 190.435 264.948C190.965 264.519 191.258 263.981 191.315 263.337H193.195C193.16 264.003 192.93 264.637 192.508 265.238C192.085 265.84 191.52 266.32 190.811 266.678C190.109 267.036 189.364 267.215 188.576 267.215C186.993 267.215 185.733 266.688 184.795 265.636C183.864 264.576 183.398 263.129 183.398 261.296V260.963C183.398 259.831 183.606 258.825 184.021 257.944C184.437 257.063 185.031 256.38 185.805 255.893C186.585 255.406 187.506 255.162 188.565 255.162C189.869 255.162 190.95 255.552 191.81 256.333C192.676 257.114 193.138 258.127 193.195 259.373H191.315C191.258 258.621 190.972 258.005 190.456 257.525C189.948 257.038 189.317 256.795 188.565 256.795C187.556 256.795 186.771 257.16 186.213 257.891C185.661 258.614 185.386 259.663 185.386 261.038V261.414C185.386 262.753 185.661 263.785 186.213 264.508C186.764 265.231 187.552 265.593 188.576 265.593ZM197.589 267H195.602V255.377H197.589V267ZM195.44 252.294C195.44 251.972 195.537 251.7 195.73 251.478C195.931 251.256 196.225 251.145 196.611 251.145C196.998 251.145 197.292 251.256 197.492 251.478C197.693 251.7 197.793 251.972 197.793 252.294C197.793 252.616 197.693 252.885 197.492 253.1C197.292 253.314 196.998 253.422 196.611 253.422C196.225 253.422 195.931 253.314 195.73 253.1C195.537 252.885 195.44 252.616 195.44 252.294ZM207.955 267C207.84 266.771 207.747 266.363 207.676 265.775C206.752 266.735 205.649 267.215 204.367 267.215C203.221 267.215 202.28 266.893 201.542 266.248C200.812 265.596 200.446 264.773 200.446 263.777C200.446 262.567 200.905 261.629 201.821 260.963C202.745 260.29 204.041 259.953 205.71 259.953H207.644V259.04C207.644 258.345 207.436 257.794 207.021 257.386C206.605 256.97 205.993 256.763 205.184 256.763C204.475 256.763 203.88 256.942 203.4 257.3C202.921 257.658 202.681 258.091 202.681 258.6H200.683C200.683 258.02 200.887 257.461 201.295 256.924C201.71 256.38 202.269 255.95 202.971 255.635C203.68 255.32 204.457 255.162 205.302 255.162C206.641 255.162 207.69 255.499 208.449 256.172C209.208 256.838 209.602 257.758 209.631 258.933V264.282C209.631 265.349 209.767 266.198 210.039 266.828V267H207.955ZM204.657 265.485C205.28 265.485 205.871 265.324 206.43 265.002C206.988 264.68 207.393 264.261 207.644 263.745V261.36H206.086C203.651 261.36 202.434 262.073 202.434 263.498C202.434 264.121 202.641 264.608 203.057 264.959C203.472 265.31 204.006 265.485 204.657 265.485ZM214.905 267H212.918V250.5H214.905V267ZM220.255 267H218.268V255.377H220.255V267ZM218.106 252.294C218.106 251.972 218.203 251.7 218.396 251.478C218.597 251.256 218.891 251.145 219.277 251.145C219.664 251.145 219.958 251.256 220.158 251.478C220.359 251.7 220.459 251.972 220.459 252.294C220.459 252.616 220.359 252.885 220.158 253.1C219.958 253.314 219.664 253.422 219.277 253.422C218.891 253.422 218.597 253.314 218.396 253.1C218.203 252.885 218.106 252.616 218.106 252.294ZM230.213 263.917C230.213 263.38 230.009 262.965 229.601 262.671C229.2 262.37 228.494 262.112 227.484 261.897C226.482 261.683 225.683 261.425 225.089 261.124C224.502 260.823 224.065 260.465 223.778 260.05C223.499 259.634 223.359 259.14 223.359 258.567C223.359 257.615 223.76 256.809 224.562 256.15C225.372 255.492 226.403 255.162 227.656 255.162C228.974 255.162 230.041 255.502 230.857 256.183C231.681 256.863 232.093 257.733 232.093 258.793H230.095C230.095 258.249 229.862 257.78 229.396 257.386C228.938 256.992 228.358 256.795 227.656 256.795C226.933 256.795 226.367 256.952 225.959 257.268C225.551 257.583 225.347 257.994 225.347 258.503C225.347 258.983 225.536 259.344 225.916 259.588C226.296 259.831 226.979 260.064 227.968 260.286C228.963 260.508 229.769 260.773 230.385 261.081C231.001 261.389 231.455 261.761 231.749 262.198C232.05 262.628 232.2 263.154 232.2 263.777C232.2 264.816 231.785 265.65 230.954 266.28C230.123 266.903 229.046 267.215 227.721 267.215C226.79 267.215 225.966 267.05 225.25 266.721C224.534 266.391 223.972 265.933 223.563 265.346C223.162 264.751 222.962 264.11 222.962 263.423H224.949C224.985 264.089 225.25 264.619 225.744 265.013C226.245 265.399 226.904 265.593 227.721 265.593C228.473 265.593 229.074 265.442 229.525 265.142C229.984 264.834 230.213 264.425 230.213 263.917ZM237.485 252.562V255.377H239.655V256.913H237.485V264.121C237.485 264.587 237.582 264.938 237.775 265.174C237.969 265.403 238.298 265.518 238.764 265.518C238.993 265.518 239.308 265.475 239.709 265.389V267C239.186 267.143 238.678 267.215 238.184 267.215C237.296 267.215 236.626 266.946 236.175 266.409C235.724 265.872 235.498 265.109 235.498 264.121V256.913H233.382V255.377H235.498V252.562H237.485Z" fill="#2D9CDB"/>
<g filter="url(#filter1_d)">
<rect x="10" y="343" width="273" height="46" rx="5" fill="white"/>
<rect x="11.5" y="344.5" width="270" height="43" rx="3.5" stroke="#F2994A" stroke-width="3" stroke-linejoin="round"/>
</g>
<path d="M88.8252 367.918H82.2725L80.8008 372H78.6738L84.6465 356.359H86.4512L92.4346 372H90.3184L88.8252 367.918ZM82.8955 366.221H88.2129L85.5488 358.905L82.8955 366.221ZM93.7451 366.092C93.7451 364.309 94.1676 362.876 95.0127 361.795C95.8577 360.706 96.9642 360.162 98.332 360.162C99.6927 360.162 100.771 360.628 101.565 361.559V355.5H103.553V372H101.727L101.63 370.754C100.835 371.728 99.7285 372.215 98.3105 372.215C96.9642 372.215 95.8649 371.663 95.0127 370.561C94.1676 369.458 93.7451 368.018 93.7451 366.242V366.092ZM95.7324 366.317C95.7324 367.635 96.0046 368.666 96.5488 369.411C97.0931 370.156 97.8451 370.528 98.8047 370.528C100.065 370.528 100.985 369.963 101.565 368.831V363.492C100.971 362.396 100.058 361.849 98.8262 361.849C97.8522 361.849 97.0931 362.225 96.5488 362.977C96.0046 363.729 95.7324 364.842 95.7324 366.317ZM106.163 366.092C106.163 364.309 106.586 362.876 107.431 361.795C108.276 360.706 109.382 360.162 110.75 360.162C112.111 360.162 113.188 360.628 113.983 361.559V355.5H115.971V372H114.145L114.048 370.754C113.253 371.728 112.146 372.215 110.729 372.215C109.382 372.215 108.283 371.663 107.431 370.561C106.586 369.458 106.163 368.018 106.163 366.242V366.092ZM108.15 366.317C108.15 367.635 108.423 368.666 108.967 369.411C109.511 370.156 110.263 370.528 111.223 370.528C112.483 370.528 113.403 369.963 113.983 368.831V363.492C113.389 362.396 112.476 361.849 111.244 361.849C110.27 361.849 109.511 362.225 108.967 362.977C108.423 363.729 108.15 364.842 108.15 366.317ZM136.854 372H134.78L126.906 359.947V372H124.833V356.359H126.906L134.802 368.466V356.359H136.854V372ZM145.028 372.215C143.453 372.215 142.171 371.699 141.183 370.668C140.194 369.63 139.7 368.244 139.7 366.511V366.146C139.7 364.993 139.919 363.965 140.355 363.062C140.799 362.153 141.415 361.444 142.203 360.936C142.998 360.42 143.857 360.162 144.781 360.162C146.292 360.162 147.467 360.66 148.305 361.655C149.143 362.651 149.562 364.076 149.562 365.931V366.758H141.688C141.716 367.904 142.049 368.831 142.687 369.54C143.331 370.242 144.147 370.593 145.136 370.593C145.838 370.593 146.432 370.45 146.919 370.163C147.406 369.877 147.832 369.497 148.197 369.024L149.411 369.97C148.437 371.466 146.976 372.215 145.028 372.215ZM144.781 361.795C143.979 361.795 143.306 362.089 142.762 362.676C142.217 363.256 141.881 364.072 141.752 365.125H147.574V364.975C147.517 363.965 147.245 363.184 146.758 362.633C146.271 362.074 145.612 361.795 144.781 361.795ZM162.162 369.261L164.396 360.377H166.384L163 372H161.389L158.563 363.191L155.813 372H154.202L150.829 360.377H152.806L155.094 369.078L157.801 360.377H159.401L162.162 369.261ZM184.56 358.057H179.532V372H177.48V358.057H172.464V356.359H184.56V358.057ZM188.728 372H186.74V360.377H188.728V372ZM186.579 357.294C186.579 356.972 186.676 356.7 186.869 356.478C187.07 356.256 187.363 356.145 187.75 356.145C188.137 356.145 188.43 356.256 188.631 356.478C188.831 356.7 188.932 356.972 188.932 357.294C188.932 357.616 188.831 357.885 188.631 358.1C188.43 358.314 188.137 358.422 187.75 358.422C187.363 358.422 187.07 358.314 186.869 358.1C186.676 357.885 186.579 357.616 186.579 357.294ZM194.614 357.562V360.377H196.784V361.913H194.614V369.121C194.614 369.587 194.711 369.938 194.904 370.174C195.098 370.403 195.427 370.518 195.893 370.518C196.122 370.518 196.437 370.475 196.838 370.389V372C196.315 372.143 195.807 372.215 195.312 372.215C194.424 372.215 193.755 371.946 193.304 371.409C192.853 370.872 192.627 370.109 192.627 369.121V361.913H190.511V360.377H192.627V357.562H194.614ZM201.274 372H199.287V355.5H201.274V372ZM209.288 372.215C207.713 372.215 206.431 371.699 205.442 370.668C204.454 369.63 203.96 368.244 203.96 366.511V366.146C203.96 364.993 204.178 363.965 204.615 363.062C205.059 362.153 205.675 361.444 206.463 360.936C207.258 360.42 208.117 360.162 209.041 360.162C210.552 360.162 211.727 360.66 212.564 361.655C213.402 362.651 213.821 364.076 213.821 365.931V366.758H205.947C205.976 367.904 206.309 368.831 206.946 369.54C207.591 370.242 208.407 370.593 209.396 370.593C210.097 370.593 210.692 370.45 211.179 370.163C211.666 369.877 212.092 369.497 212.457 369.024L213.671 369.97C212.697 371.466 211.236 372.215 209.288 372.215ZM209.041 361.795C208.239 361.795 207.566 362.089 207.021 362.676C206.477 363.256 206.141 364.072 206.012 365.125H211.834V364.975C211.777 363.965 211.505 363.184 211.018 362.633C210.531 362.074 209.872 361.795 209.041 361.795Z" fill="#8FC7E6"/>
<g filter="url(#filter2_d)">
<rect x="38" y="288" width="70" height="37" rx="5" fill="#27AE60"/>
</g>
<path d="M58.2832 301.469V307.088C58.2832 308.021 57.9902 308.76 57.4043 309.303C56.8223 309.846 56.0254 310.117 55.0137 310.117C54.0176 310.117 53.2266 309.854 52.6406 309.326C52.0547 308.799 51.7559 308.074 51.7441 307.152V301.469H53.502V307.1C53.502 307.658 53.6348 308.066 53.9004 308.324C54.1699 308.578 54.541 308.705 55.0137 308.705C56.002 308.705 56.5039 308.186 56.5195 307.146V301.469H58.2832ZM61.4824 306.994V310H59.7246V301.469H63.0527C63.6934 301.469 64.2559 301.586 64.7402 301.82C65.2285 302.055 65.6035 302.389 65.8652 302.822C66.127 303.252 66.2578 303.742 66.2578 304.293C66.2578 305.129 65.9707 305.789 65.3965 306.273C64.8262 306.754 64.0352 306.994 63.0234 306.994H61.4824ZM61.4824 305.57H63.0527C63.5176 305.57 63.8711 305.461 64.1133 305.242C64.3594 305.023 64.4824 304.711 64.4824 304.305C64.4824 303.887 64.3594 303.549 64.1133 303.291C63.8672 303.033 63.5273 302.9 63.0938 302.893H61.4824V305.57ZM67.4707 310V301.469H70.0957C70.8457 301.469 71.5156 301.639 72.1055 301.979C72.6992 302.314 73.1621 302.795 73.4941 303.42C73.8262 304.041 73.9922 304.748 73.9922 305.541V305.934C73.9922 306.727 73.8281 307.432 73.5 308.049C73.1758 308.666 72.7168 309.145 72.123 309.484C71.5293 309.824 70.8594 309.996 70.1133 310H67.4707ZM69.2285 302.893V308.588H70.0781C70.7656 308.588 71.291 308.363 71.6543 307.914C72.0176 307.465 72.2031 306.822 72.2109 305.986V305.535C72.2109 304.668 72.0312 304.012 71.6719 303.566C71.3125 303.117 70.7871 302.893 70.0957 302.893H69.2285ZM79.9629 308.242H76.8809L76.2949 310H74.4258L77.6016 301.469H79.2305L82.4238 310H80.5547L79.9629 308.242ZM77.3555 306.818H79.4883L78.416 303.625L77.3555 306.818ZM88.9395 302.893H86.3262V310H84.5684V302.893H81.9902V301.469H88.9395V302.893ZM95.0801 306.303H91.7051V308.588H95.666V310H89.9473V301.469H95.6543V302.893H91.7051V304.926H95.0801V306.303Z" fill="#F2F2F2"/>
<g filter="url(#filter3_d)">
<rect x="111" y="398" width="70" height="37" rx="5" fill="#F2C94C"/>
</g>
<path d="M140.236 418.242H137.154L136.568 420H134.699L137.875 411.469H139.504L142.697 420H140.828L140.236 418.242ZM137.629 416.818H139.762L138.689 413.625L137.629 416.818ZM143.494 420V411.469H146.119C146.869 411.469 147.539 411.639 148.129 411.979C148.723 412.314 149.186 412.795 149.518 413.42C149.85 414.041 150.016 414.748 150.016 415.541V415.934C150.016 416.727 149.852 417.432 149.523 418.049C149.199 418.666 148.74 419.145 148.146 419.484C147.553 419.824 146.883 419.996 146.137 420H143.494ZM145.252 412.893V418.588H146.102C146.789 418.588 147.314 418.363 147.678 417.914C148.041 417.465 148.227 416.822 148.234 415.986V415.535C148.234 414.668 148.055 414.012 147.695 413.566C147.336 413.117 146.811 412.893 146.119 412.893H145.252ZM151.299 420V411.469H153.924C154.674 411.469 155.344 411.639 155.934 411.979C156.527 412.314 156.99 412.795 157.322 413.42C157.654 414.041 157.82 414.748 157.82 415.541V415.934C157.82 416.727 157.656 417.432 157.328 418.049C157.004 418.666 156.545 419.145 155.951 419.484C155.357 419.824 154.688 419.996 153.941 420H151.299ZM153.057 412.893V418.588H153.906C154.594 418.588 155.119 418.363 155.482 417.914C155.846 417.465 156.031 416.822 156.039 415.986V415.535C156.039 414.668 155.859 414.012 155.5 413.566C155.141 413.117 154.615 412.893 153.924 412.893H153.057Z" fill="#F2F2F2"/>
<g filter="url(#filter4_d)">
<rect x="183" y="288" width="70" height="37" rx="5" fill="#EB5757"/>
</g>
<path d="M198.209 310V301.469H200.834C201.584 301.469 202.254 301.639 202.844 301.979C203.438 302.314 203.9 302.795 204.232 303.42C204.564 304.041 204.73 304.748 204.73 305.541V305.934C204.73 306.727 204.566 307.432 204.238 308.049C203.914 308.666 203.455 309.145 202.861 309.484C202.268 309.824 201.598 309.996 200.852 310H198.209ZM199.967 302.893V308.588H200.816C201.504 308.588 202.029 308.363 202.393 307.914C202.756 307.465 202.941 306.822 202.949 305.986V305.535C202.949 304.668 202.77 304.012 202.41 303.566C202.051 303.117 201.525 302.893 200.834 302.893H199.967ZM211.146 306.303H207.771V308.588H211.732V310H206.014V301.469H211.721V302.893H207.771V304.926H211.146V306.303ZM214.521 308.588H218.254V310H212.764V301.469H214.521V308.588ZM224.4 306.303H221.025V308.588H224.986V310H219.268V301.469H224.975V302.893H221.025V304.926H224.4V306.303ZM232.557 302.893H229.943V310H228.186V302.893H225.607V301.469H232.557V302.893ZM238.697 306.303H235.322V308.588H239.283V310H233.564V301.469H239.271V302.893H235.322V304.926H238.697V306.303Z" fill="#F2F2F2"/>
<g filter="url(#filter5_d)">
<rect x="111" y="496" width="70" height="37" rx="5" fill="#EB5757"/>
</g>
<path d="M125.383 515.158C125.316 516.076 124.977 516.799 124.363 517.326C123.754 517.854 122.949 518.117 121.949 518.117C120.855 518.117 119.994 517.75 119.365 517.016C118.74 516.277 118.428 515.266 118.428 513.98V513.459C118.428 512.639 118.572 511.916 118.861 511.291C119.15 510.666 119.562 510.188 120.098 509.855C120.637 509.52 121.262 509.352 121.973 509.352C122.957 509.352 123.75 509.615 124.352 510.143C124.953 510.67 125.301 511.41 125.395 512.363H123.637C123.594 511.812 123.439 511.414 123.174 511.168C122.912 510.918 122.512 510.793 121.973 510.793C121.387 510.793 120.947 511.004 120.654 511.426C120.365 511.844 120.217 512.494 120.209 513.377V514.021C120.209 514.943 120.348 515.617 120.625 516.043C120.906 516.469 121.348 516.682 121.949 516.682C122.492 516.682 122.896 516.559 123.162 516.312C123.432 516.062 123.586 515.678 123.625 515.158H125.383ZM133.545 513.928C133.545 514.768 133.396 515.504 133.1 516.137C132.803 516.77 132.377 517.258 131.822 517.602C131.271 517.945 130.639 518.117 129.924 518.117C129.217 518.117 128.586 517.947 128.031 517.607C127.477 517.268 127.047 516.783 126.742 516.154C126.438 515.521 126.283 514.795 126.279 513.975V513.553C126.279 512.713 126.43 511.975 126.73 511.338C127.035 510.697 127.463 510.207 128.014 509.867C128.568 509.523 129.201 509.352 129.912 509.352C130.623 509.352 131.254 509.523 131.805 509.867C132.359 510.207 132.787 510.697 133.088 511.338C133.393 511.975 133.545 512.711 133.545 513.547V513.928ZM131.764 513.541C131.764 512.646 131.604 511.967 131.283 511.502C130.963 511.037 130.506 510.805 129.912 510.805C129.322 510.805 128.867 511.035 128.547 511.496C128.227 511.953 128.064 512.625 128.061 513.512V513.928C128.061 514.799 128.221 515.475 128.541 515.955C128.861 516.436 129.322 516.676 129.924 516.676C130.514 516.676 130.967 516.445 131.283 515.984C131.6 515.52 131.76 514.844 131.764 513.957V513.541ZM137.119 509.469L139.311 515.656L141.49 509.469H143.799V518H142.035V515.668L142.211 511.643L139.908 518H138.701L136.404 511.648L136.58 515.668V518H134.822V509.469H137.119ZM147.092 514.994V518H145.334V509.469H148.662C149.303 509.469 149.865 509.586 150.35 509.82C150.838 510.055 151.213 510.389 151.475 510.822C151.736 511.252 151.867 511.742 151.867 512.293C151.867 513.129 151.58 513.789 151.006 514.273C150.436 514.754 149.645 514.994 148.633 514.994H147.092ZM147.092 513.57H148.662C149.127 513.57 149.48 513.461 149.723 513.242C149.969 513.023 150.092 512.711 150.092 512.305C150.092 511.887 149.969 511.549 149.723 511.291C149.477 511.033 149.137 510.9 148.703 510.893H147.092V513.57ZM156.854 516.242H153.771L153.186 518H151.316L154.492 509.469H156.121L159.314 518H157.445L156.854 516.242ZM154.246 514.818H156.379L155.307 511.625L154.246 514.818ZM167.049 518H165.291L161.869 512.387V518H160.111V509.469H161.869L165.297 515.094V509.469H167.049V518ZM171.361 513.312L173.137 509.469H175.059L172.258 514.906V518H170.471V514.906L167.67 509.469H169.598L171.361 513.312Z" fill="#F2F2F2"/>
<defs>
<filter id="filter0_d" x="5" y="235" width="283" height="56" filterUnits="userSpaceOnUse" color-interpolation-filters="sRGB">
<feFlood flood-opacity="0" result="BackgroundImageFix"/>
<feColorMatrix in="SourceAlpha" type="matrix" values="0 0 0 0 0 0 0 0 0 0 0 0 0 0 0 0 0 0 127 0"/>
<feOffset dy="4"/>
<feGaussianBlur stdDeviation="2.5"/>
<feColorMatrix type="matrix" values="0 0 0 0 0 0 0 0 0 0 0 0 0 0 0 0 0 0 0.25 0"/>
<feBlend mode="normal" in2="BackgroundImageFix" result="effect1_dropShadow"/>
<feBlend mode="normal" in="SourceGraphic" in2="effect1_dropShadow" result="shape"/>
</filter>
<filter id="filter1_d" x="5" y="342" width="283" height="56" filterUnits="userSpaceOnUse" color-interpolation-filters="sRGB">
<feFlood flood-opacity="0" result="BackgroundImageFix"/>
<feColorMatrix in="SourceAlpha" type="matrix" values="0 0 0 0 0 0 0 0 0 0 0 0 0 0 0 0 0 0 127 0"/>
<feOffset dy="4"/>
<feGaussianBlur stdDeviation="2.5"/>
<feColorMatrix type="matrix" values="0 0 0 0 0 0 0 0 0 0 0 0 0 0 0 0 0 0 0.25 0"/>
<feBlend mode="normal" in2="BackgroundImageFix" result="effect1_dropShadow"/>
<feBlend mode="normal" in="SourceGraphic" in2="effect1_dropShadow" result="shape"/>
</filter>
<filter id="filter2_d" x="38" y="288" width="75" height="41" filterUnits="userSpaceOnUse" color-interpolation-filters="sRGB">
<feFlood flood-opacity="0" result="BackgroundImageFix"/>
<feColorMatrix in="SourceAlpha" type="matrix" values="0 0 0 0 0 0 0 0 0 0 0 0 0 0 0 0 0 0 127 0"/>
<feOffset dx="5" dy="4"/>
<feColorMatrix type="matrix" values="0 0 0 0 0 0 0 0 0 0 0 0 0 0 0 0 0 0 0.25 0"/>
<feBlend mode="normal" in2="BackgroundImageFix" result="effect1_dropShadow"/>
<feBlend mode="normal" in="SourceGraphic" in2="effect1_dropShadow" result="shape"/>
</filter>
<filter id="filter3_d" x="111" y="398" width="75" height="41" filterUnits="userSpaceOnUse" color-interpolation-filters="sRGB">
<feFlood flood-opacity="0" result="BackgroundImageFix"/>
<feColorMatrix in="SourceAlpha" type="matrix" values="0 0 0 0 0 0 0 0 0 0 0 0 0 0 0 0 0 0 127 0"/>
<feOffset dx="5" dy="4"/>
<feColorMatrix type="matrix" values="0 0 0 0 0 0 0 0 0 0 0 0 0 0 0 0 0 0 0.25 0"/>
<feBlend mode="normal" in2="BackgroundImageFix" result="effect1_dropShadow"/>
<feBlend mode="normal" in="SourceGraphic" in2="effect1_dropShadow" result="shape"/>
</filter>
<filter id="filter4_d" x="183" y="288" width="75" height="41" filterUnits="userSpaceOnUse" color-interpolation-filters="sRGB">
<feFlood flood-opacity="0" result="BackgroundImageFix"/>
<feColorMatrix in="SourceAlpha" type="matrix" values="0 0 0 0 0 0 0 0 0 0 0 0 0 0 0 0 0 0 127 0"/>
<feOffset dx="5" dy="4"/>
<feColorMatrix type="matrix" values="0 0 0 0 0 0 0 0 0 0 0 0 0 0 0 0 0 0 0.25 0"/>
<feBlend mode="normal" in2="BackgroundImageFix" result="effect1_dropShadow"/>
<feBlend mode="normal" in="SourceGraphic" in2="effect1_dropShadow" result="shape"/>
</filter>
<filter id="filter5_d" x="111" y="496" width="75" height="41" filterUnits="userSpaceOnUse" color-interpolation-filters="sRGB">
<feFlood flood-opacity="0" result="BackgroundImageFix"/>
<feColorMatrix in="SourceAlpha" type="matrix" values="0 0 0 0 0 0 0 0 0 0 0 0 0 0 0 0 0 0 127 0"/>
<feOffset dx="5" dy="4"/>
<feColorMatrix type="matrix" values="0 0 0 0 0 0 0 0 0 0 0 0 0 0 0 0 0 0 0.25 0"/>
<feBlend mode="normal" in2="BackgroundImageFix" result="effect1_dropShadow"/>
<feBlend mode="normal" in="SourceGraphic" in2="effect1_dropShadow" result="shape"/>
</filter>
</defs>
</svg>
